HIERARCHY
ROOT Hips
{
	OFFSET 0.000000 83.214638 0.000000
	CHANNELS 6 Xposition Yposition Zposition Xrotation Yrotation Zrotation
	JOINT Pelvis
	{
		OFFSET 0.000000 0.000000 0.000000
		CHANNELS 3 Xrotation Yrotation Zrotation
		JOINT LeftUpLeg
		{
			OFFSET 8.479700 -4.795502 -0.379100
			CHANNELS 3 Xrotation Yrotation Zrotation
			JOINT LeftLeg
			{
				OFFSET 0.024144 -32.555107 0.112900
				CHANNELS 3 Xrotation Yrotation Zrotation
				JOINT LeftFoot
				{
					OFFSET -0.024144 -32.638630 -3.012600
					CHANNELS 3 Xrotation Yrotation Zrotation
					JOINT LeftToeBase
					{
						OFFSET 0.970200 -13.225400 11.864200
						CHANNELS 3 Xrotation Yrotation Zrotation
						End Site
						{
							OFFSET 0.000000 12.319262 0.000000
						}
					}
					JOINT LFootTongue
					{
						OFFSET 1.142400 -1.059800 6.665200
						CHANNELS 3 Xrotation Yrotation Zrotation
						End Site
						{
							OFFSET 0.000000 12.319262 0.000000
						}
					}
				}
				JOINT LeftPantLeg
				{
					OFFSET 0.918482 -16.533964 -2.284700
					CHANNELS 3 Xrotation Yrotation Zrotation
					End Site
					{
						OFFSET 0.350399 24.744368 0.000000
					}
				}
			}
		}
		JOINT RightUpLeg
		{
			OFFSET -8.479700 -4.795502 -0.379100
			CHANNELS 3 Xrotation Yrotation Zrotation
			JOINT RightLeg
			{
				OFFSET -0.023144 -32.555092 0.112900
				CHANNELS 3 Xrotation Yrotation Zrotation
				JOINT RightFoot
				{
					OFFSET 0.023144 -32.638641 -3.012700
					CHANNELS 3 Xrotation Yrotation Zrotation
					JOINT RightToeBase
					{
						OFFSET -0.970200 -13.225400 11.864200
						CHANNELS 3 Xrotation Yrotation Zrotation
						End Site
						{
							OFFSET 0.000000 12.319244 0.000000
						}
					}
					JOINT RFootTongue
					{
						OFFSET -1.142200 -1.059800 6.665200
						CHANNELS 3 Xrotation Yrotation Zrotation
						End Site
						{
							OFFSET 0.000000 12.319243 0.000000
						}
					}
				}
				JOINT RightPantLeg
				{
					OFFSET -0.919482 -16.533978 -2.284800
					CHANNELS 3 Xrotation Yrotation Zrotation
					End Site
					{
						OFFSET -0.350400 24.744419 0.000000
					}
				}
			}
		}
	}
	JOINT Spine
	{
		OFFSET 0.000000 7.722000 1.166200
		CHANNELS 3 Xrotation Yrotation Zrotation
		JOINT Spine1
		{
			OFFSET 0.000000 12.024101 0.248800
			CHANNELS 3 Xrotation Yrotation Zrotation
			JOINT Spine2
			{
				OFFSET 0.000000 11.502998 -0.491200
				CHANNELS 3 Xrotation Yrotation Zrotation
				JOINT Neck
				{
					OFFSET 0.000000 18.430702 -3.123100
					CHANNELS 3 Xrotation Yrotation Zrotation
					JOINT Head
					{
						OFFSET 0.000000 9.051102 1.034000
						CHANNELS 3 Xrotation Yrotation Zrotation
						JOINT HairB
						{
							OFFSET 0.208400 24.786102 24.822300
							CHANNELS 3 Xrotation Yrotation Zrotation
							End Site
							{
								OFFSET 0.000000 32.263779 0.000000
							}
						}
						JOINT HairA
						{
							OFFSET -7.081100 24.428299 23.196600
							CHANNELS 3 Xrotation Yrotation Zrotation
							End Site
							{
								OFFSET 0.000000 32.263779 0.000000
							}
						}
						JOINT Hat
						{
							OFFSET 16.728800 15.048294 -15.439601
							CHANNELS 3 Xrotation Yrotation Zrotation
							End Site
							{
								OFFSET 0.000000 32.263779 0.000000
							}
						}
					}
				}
				JOINT LeftShoulder
				{
					OFFSET 6.197800 13.665199 -4.064700
					CHANNELS 3 Xrotation Yrotation Zrotation
					JOINT LeftArm
					{
						OFFSET 7.778100 -0.187103 -1.709300
						CHANNELS 3 Xrotation Yrotation Zrotation
						JOINT LeftForeArm
						{
							OFFSET 22.049376 0.000000 0.000000
							CHANNELS 3 Xrotation Yrotation Zrotation
							JOINT LeftHand
							{
								OFFSET 23.009392 0.000000 0.000000
								CHANNELS 3 Xrotation Yrotation Zrotation
								JOINT LeftHandThumb1
								{
									OFFSET 3.507191 -2.063065 3.133727
									CHANNELS 3 Xrotation Yrotation Zrotation
									JOINT LeftHandThumb2
									{
										OFFSET 3.101337 -1.790558 1.790558
										CHANNELS 3 Xrotation Yrotation Zrotation
										JOINT LeftHandThumb3
										{
											OFFSET 3.058640 -1.765907 1.765906
											CHANNELS 3 Xrotation Yrotation Zrotation
											End Site
											{
												OFFSET -0.415260 3.926476 -0.049563
											}
										}
									}
								}
								JOINT LeftHandIndex1
								{
									OFFSET 11.334419 -0.901459 3.706815
									CHANNELS 3 Xrotation Yrotation Zrotation
									JOINT LeftHandIndex2
									{
										OFFSET 3.283112 0.000000 0.000000
										CHANNELS 3 Xrotation Yrotation Zrotation
										JOINT LeftHandIndex3
										{
											OFFSET 3.323853 0.000000 0.000000
											CHANNELS 3 Xrotation Yrotation Zrotation
											End Site
											{
												OFFSET -1.135597 3.097809 0.402452
											}
										}
									}
								}
								JOINT LeftHandMiddle1
								{
									OFFSET 11.335861 0.000000 0.000000
									CHANNELS 3 Xrotation Yrotation Zrotation
									JOINT LeftHandMiddle2
									{
										OFFSET 3.410492 0.000000 0.000000
										CHANNELS 3 Xrotation Yrotation Zrotation
										JOINT LeftHandMiddle3
										{
											OFFSET 3.312172 0.000000 0.000000
											CHANNELS 3 Xrotation Yrotation Zrotation
											End Site
											{
												OFFSET -1.150200 3.080154 0.400270
											}
										}
									}
								}
								JOINT LeftHandRing1
								{
									OFFSET 11.514786 -0.013176 -3.003090
									CHANNELS 3 Xrotation Yrotation Zrotation
									JOINT LeftHandRing2
									{
										OFFSET 3.053307 0.000000 0.000000
										CHANNELS 3 Xrotation Yrotation Zrotation
										JOINT LeftHandRing3
										{
											OFFSET 3.295807 0.000000 0.000000
											CHANNELS 3 Xrotation Yrotation Zrotation
											End Site
											{
												OFFSET -1.281006 3.013344 0.375733
											}
										}
									}
								}
								JOINT LeftHandPinky1
								{
									OFFSET 10.518692 -0.960396 -5.730441
									CHANNELS 3 Xrotation Yrotation Zrotation
									JOINT LeftHandPinky2
									{
										OFFSET 2.861649 0.000000 0.000000
										CHANNELS 3 Xrotation Yrotation Zrotation
										JOINT LeftHandPinky3
										{
											OFFSET 2.863380 0.000000 0.000000
											CHANNELS 3 Xrotation Yrotation Zrotation
											End Site
											{
												OFFSET -0.843597 2.711159 0.369971
											}
										}
									}
								}
							}
							JOINT LSleeve
							{
								OFFSET 6.676277 -0.344902 -1.011730
								CHANNELS 3 Xrotation Yrotation Zrotation
								End Site
								{
									OFFSET 0.000000 14.885353 0.000000
								}
							}
						}
					}
				}
				JOINT RightShoulder
				{
					OFFSET -6.197800 13.665199 -4.064700
					CHANNELS 3 Xrotation Yrotation Zrotation
					JOINT RightArm
					{
						OFFSET -7.778100 -0.187103 -1.709300
						CHANNELS 3 Xrotation Yrotation Zrotation
						JOINT RightForeArm
						{
							OFFSET -22.049376 0.000000 0.000000
							CHANNELS 3 Xrotation Yrotation Zrotation
							JOINT RightHand
							{
								OFFSET -23.009392 0.000000 0.000000
								CHANNELS 3 Xrotation Yrotation Zrotation
								JOINT RightHandThumb1
								{
									OFFSET -3.507191 -2.063065 3.133727
									CHANNELS 3 Xrotation Yrotation Zrotation
									JOINT RightHandThumb2
									{
										OFFSET -3.101337 -1.790558 1.790558
										CHANNELS 3 Xrotation Yrotation Zrotation
										JOINT RightHandThumb3
										{
											OFFSET -3.058640 -1.765907 1.765906
											CHANNELS 3 Xrotation Yrotation Zrotation
											End Site
											{
												OFFSET 0.415260 3.926476 -0.049563
											}
										}
									}
								}
								JOINT RightHandIndex1
								{
									OFFSET -11.334419 -0.901459 3.706815
									CHANNELS 3 Xrotation Yrotation Zrotation
									JOINT RightHandIndex2
									{
										OFFSET -3.283112 0.000000 0.000000
										CHANNELS 3 Xrotation Yrotation Zrotation
										JOINT RightHandIndex3
										{
											OFFSET -3.323853 0.000000 0.000000
											CHANNELS 3 Xrotation Yrotation Zrotation
											End Site
											{
												OFFSET 1.135597 3.097809 0.402452
											}
										}
									}
								}
								JOINT RightHandMiddle1
								{
									OFFSET -11.335861 0.000000 0.000000
									CHANNELS 3 Xrotation Yrotation Zrotation
									JOINT RightHandMiddle2
									{
										OFFSET -3.410492 0.000000 0.000000
										CHANNELS 3 Xrotation Yrotation Zrotation
										JOINT RightHandMiddle3
										{
											OFFSET -3.312172 0.000000 0.000000
											CHANNELS 3 Xrotation Yrotation Zrotation
											End Site
											{
												OFFSET 1.150200 3.080154 0.400270
											}
										}
									}
								}
								JOINT RightHandRing1
								{
									OFFSET -11.514786 -0.013176 -3.003090
									CHANNELS 3 Xrotation Yrotation Zrotation
									JOINT RightHandRing2
									{
										OFFSET -3.053307 0.000000 0.000000
										CHANNELS 3 Xrotation Yrotation Zrotation
										JOINT RightHandRing3
										{
											OFFSET -3.295807 0.000000 0.000000
											CHANNELS 3 Xrotation Yrotation Zrotation
											End Site
											{
												OFFSET 1.281006 3.013344 0.375733
											}
										}
									}
								}
								JOINT RightHandPinky1
								{
									OFFSET -10.518692 -0.960396 -5.730441
									CHANNELS 3 Xrotation Yrotation Zrotation
									JOINT RightHandPinky2
									{
										OFFSET -2.861649 0.000000 0.000000
										CHANNELS 3 Xrotation Yrotation Zrotation
										JOINT RightHandPinky3
										{
											OFFSET -2.863380 0.000000 0.000000
											CHANNELS 3 Xrotation Yrotation Zrotation
											End Site
											{
												OFFSET 0.843597 2.711159 0.369971
											}
										}
									}
								}
							}
							JOINT RSleeve
							{
								OFFSET -6.676277 -0.344902 -1.011730
								CHANNELS 3 Xrotation Yrotation Zrotation
								End Site
								{
									OFFSET 0.000000 14.885353 0.000000
								}
							}
						}
					}
				}
				JOINT Backpack
				{
					OFFSET 0.000000 -2.471497 36.677502
					CHANNELS 3 Xrotation Yrotation Zrotation
					End Site
					{
						OFFSET 0.000000 20.427315 0.000000
					}
				}
				JOINT Hood
				{
					OFFSET 0.000000 18.754097 -10.431000
					CHANNELS 3 Xrotation Yrotation Zrotation
					JOINT Hood1
					{
						OFFSET 0.000000 -5.011002 -7.685901
						CHANNELS 3 Xrotation Yrotation Zrotation
						End Site
						{
							OFFSET 0.000000 9.175140 0.000000
						}
					}
				}
				JOINT LHoodieString
				{
					OFFSET 5.250500 16.397697 3.089900
					CHANNELS 3 Xrotation Yrotation Zrotation
					JOINT LHoodieString1
					{
						OFFSET 0.257700 -6.364304 3.694600
						CHANNELS 3 Xrotation Yrotation Zrotation
						JOINT LHoodieString2
						{
							OFFSET 0.000000 -9.643799 2.679100
							CHANNELS 3 Xrotation Yrotation Zrotation
							End Site
							{
								OFFSET 0.000000 10.009018 0.000000
							}
						}
					}
				}
				JOINT RHoodieString
				{
					OFFSET -5.250500 16.397697 3.089900
					CHANNELS 3 Xrotation Yrotation Zrotation
					JOINT RHoodieString1
					{
						OFFSET -0.257700 -6.364304 3.694600
						CHANNELS 3 Xrotation Yrotation Zrotation
						JOINT RHoodieString2
						{
							OFFSET 0.000000 -9.643799 2.679100
							CHANNELS 3 Xrotation Yrotation Zrotation
							End Site
							{
								OFFSET 0.000000 10.009018 0.000000
							}
						}
					}
				}
			}
			JOINT LBackpack_Strap
			{
				OFFSET 15.223200 -7.719803 -6.610900
				CHANNELS 3 Xrotation Yrotation Zrotation
				End Site
				{
					OFFSET 0.000000 16.040596 0.000000
				}
			}
			JOINT RBackpack_Strap
			{
				OFFSET -15.223000 -7.719803 -6.610900
				CHANNELS 3 Xrotation Yrotation Zrotation
				End Site
				{
					OFFSET 0.000000 16.040596 0.000000
				}
			}
		}
	}
	JOINT BoyFacialAnim_Joint
	{
		OFFSET 1.000000 -82.208099 -1.550900
		CHANNELS 3 Xrotation Yrotation Zrotation
		End Site
		{
			OFFSET 0.000000 30.012791 0.000000
		}
	}
}
MOTION
Frames: 5
Frame Time: 0.033333
-7.026802 9.018456 305.025055 289.142070 1.309088 36.498396 -0.000000 -0.000001 -0.000000 -62.002968 -28.910230 18.985537 95.712834 0.488191 -2.825554 53.555435 9.883834 -13.779885 -0.000000 -0.000000 0.000000 -0.000000 -0.000000 -0.000000 -0.000001 0.000001 -0.000000 -88.262778 0.848570 -30.102020 67.610212 0.444132 2.342298 60.799257 29.306303 -6.737848 0.000001 -0.000002 -0.000000 0.000001 -0.000002 -0.000000 -0.000000 -0.000002 -0.000002 13.165819 -1.320309 -2.775101 26.180460 -3.882277 -6.956570 26.180445 -3.882271 -6.956567 12.333038 -3.903544 -1.193043 7.670041 -50.471512 18.566899 0.000000 0.000003 -0.000001 0.000000 0.000003 -0.000001 0.000000 0.000003 -0.000001 0.238575 8.039562 4.830966 13.189667 -10.129357 -35.769690 -0.134663 -63.462074 -0.516783 0.183831 -6.631079 15.717418 -18.705269 20.882429 -24.827729 -29.778416 17.031869 6.783674 -0.000004 0.000001 0.000002 -6.488736 0.726958 -16.760623 -0.515739 0.055259 -4.129978 -0.000001 0.000000 -0.000000 -0.441377 3.019307 -15.628386 -1.374804 -0.226362 -5.652766 -0.000000 -0.000006 -0.000001 1.451006 13.294092 -12.713743 -0.760892 -1.483507 -18.315004 -0.000003 0.000000 0.000001 7.927188 16.945843 -29.765022 -0.505759 -0.924909 -5.847738 0.000002 -0.000002 0.000003 0.000000 -0.000003 -0.000003 0.904725 -12.698309 -11.578233 45.545832 32.147265 81.906925 1.115417 46.283947 -0.235120 37.871237 -6.466987 -75.216509 -34.859943 1.520347 -12.806104 -0.215310 -1.556300 -1.861215 -0.000001 0.000001 -0.000002 -3.941440 13.466564 -16.369800 0.020920 -0.291979 6.213579 -0.000001 0.000000 0.000004 -0.139174 -1.783189 -19.241753 -0.060497 0.589885 9.567304 0.000001 0.000000 -0.000000 -0.637265 -13.455825 -15.227063 -0.203829 0.878958 8.176141 -0.000000 -0.000001 0.000002 5.751887 -17.310677 -9.634492 0.033123 0.007736 -0.000022 0.000000 -0.000003 0.000002 -0.000002 -0.000000 -0.000000 0.000000 -0.000001 0.000000 0.000000 -0.000001 0.000000 0.000000 -0.000001 0.000000 0.000000 -0.000001 0.000000 0.000000 -0.000001 -0.000000 0.000000 -0.000001 -0.000000 0.000000 -0.000001 0.000000 0.000000 -0.000001 -0.000000 0.000000 -0.000001 -0.000000 0.000000 -0.000001 -0.000000 0.000000 -0.000001 -0.000000 -0.000000 -0.000001 -0.000000 
-8.889862 9.687370 305.924103 291.476684 -0.876363 35.830687 0.000003 -0.000000 0.000002 -56.914908 -27.759916 24.448968 92.894247 0.417689 -2.793623 50.878110 7.487749 -13.355903 -0.000000 0.000001 -0.000000 -0.000000 0.000001 -0.000000 -0.000000 -0.000001 0.000001 -85.336424 -0.197226 -19.182274 68.026034 0.567405 2.350681 59.655562 28.969035 -4.738408 -0.000001 -0.000003 -0.000003 -0.000001 -0.000003 -0.000003 0.000001 -0.000000 -0.000000 13.076827 -1.364964 -2.686845 26.009128 -3.826272 -6.712190 26.009123 -3.826267 -6.712193 13.085194 -5.562509 -0.617434 10.103720 -52.338121 20.865731 0.000000 0.000000 0.000000 0.000000 0.000000 0.000000 0.000000 0.000000 0.000000 0.239174 9.204637 4.169112 0.850342 -7.649452 -36.612905 -0.376104 -68.895333 -0.712299 -6.535899 0.101786 23.274409 -17.390596 21.771756 -25.304686 -29.704834 17.007285 6.690712 0.000003 0.000001 -0.000005 -6.468544 0.752470 -18.405695 -0.497437 0.106811 -7.026476 -0.000001 0.000003 -0.000003 -0.471935 2.887079 -17.300482 -1.855745 -0.339005 -10.610152 0.000002 -0.000003 0.000001 1.074368 13.783577 -15.805635 -0.876495 -1.816057 -22.505910 -0.000002 -0.000000 -0.000002 7.852629 17.200974 -31.971241 -0.629727 -1.674684 -12.357746 -0.000001 0.000001 -0.000004 -0.000001 0.000001 -0.000000 0.930337 -13.654375 -9.298560 45.849472 30.383328 80.952044 1.126849 46.244776 -0.245008 40.369509 -8.819953 -77.605388 -34.863215 1.580625 -12.776408 -0.219910 -1.546917 -1.860446 0.000002 0.000001 -0.000002 -3.939910 13.480032 -16.569651 0.020177 -0.286712 6.078856 -0.000000 0.000001 -0.000002 -0.140692 -1.790605 -19.387741 -0.059092 0.581893 9.432710 0.000001 0.000002 -0.000002 -0.643983 -13.473964 -15.364190 -0.201892 0.864448 8.042090 -0.000002 -0.000000 0.000002 5.750845 -17.323465 -9.729983 0.032982 -0.017808 0.000047 0.000001 0.000003 -0.000001 -0.000002 -0.000001 -0.000000 -0.000000 0.000001 0.000000 -0.000000 0.000001 0.000000 -0.000000 0.000001 0.000000 -0.000000 0.000001 0.000000 -0.000000 0.000001 -0.000000 -0.000000 0.000001 0.000000 -0.000000 0.000001 0.000000 -0.000000 0.000001 -0.000000 -0.000000 0.000001 0.000000 -0.000000 0.000000 0.000001 -0.000000 0.000000 0.000001 0.000003 -0.000000 0.000002 
-9.934189 10.693398 307.505920 292.070528 -3.716278 36.404642 0.000003 0.000001 0.000002 -50.329226 -27.109846 28.031561 92.127299 0.355335 -2.786476 47.957927 4.359175 -14.843862 0.000000 0.000002 0.000000 0.000000 0.000002 0.000000 0.000004 0.000003 0.000001 -81.522194 -3.329819 -14.345443 67.795003 0.703025 2.347985 59.992338 29.863414 -4.791099 -0.000000 -0.000002 -0.000001 -0.000000 -0.000002 -0.000001 0.000001 0.000001 -0.000002 13.220690 -1.586766 -2.608891 26.292987 -4.034787 -6.472574 26.292989 -4.034793 -6.472578 13.533435 -6.929673 -0.869093 12.134918 -53.411946 21.319554 0.000002 0.000001 -0.000001 0.000002 0.000001 -0.000001 0.000002 0.000001 -0.000001 0.357596 8.199424 2.496980 -9.692934 -8.675940 -33.954042 -0.707622 -73.930275 -0.986721 -10.235008 6.699571 33.368783 -16.392828 22.403048 -25.677138 -29.644708 16.992611 6.598633 0.000000 0.000001 -0.000002 -6.443218 0.777636 -20.072850 -0.466969 0.159586 -10.137833 -0.000001 -0.000003 -0.000002 -0.498239 2.752170 -19.036017 -2.338509 -0.382705 -15.906787 0.000002 0.000001 0.000000 0.800870 14.287455 -18.896480 -1.002224 -2.126005 -26.525041 -0.000000 -0.000002 -0.000006 7.829860 17.439421 -34.152800 -0.813234 -2.326704 -18.437034 0.000001 0.000001 -0.000000 -0.000000 -0.000001 -0.000000 0.927133 -13.469522 -7.859096 47.107388 29.671052 80.508519 1.204516 45.163161 -0.272826 40.836861 -10.982313 -81.821336 -34.853041 1.588813 -12.753526 -0.206088 -1.574930 -1.862744 -0.000001 -0.000001 -0.000004 -3.942068 13.450365 -16.213363 0.022421 -0.302478 6.482922 -0.000000 -0.000001 0.000003 -0.133820 -1.767965 -18.992386 -0.063348 0.605913 9.836384 0.000000 0.000001 0.000002 -0.629907 -13.429515 -14.960944 -0.207827 0.908062 8.444154 -0.000000 -0.000000 0.000000 5.760570 -17.246581 -9.300471 0.033351 0.015644 0.000014 0.000001 0.000001 -0.000001 0.000001 -0.000000 0.000002 -0.000000 0.000000 -0.000000 -0.000000 0.000000 -0.000000 -0.000000 0.000000 -0.000000 -0.000000 0.000000 -0.000000 -0.000000 0.000000 -0.000001 -0.000000 0.000002 -0.000000 -0.000000 0.000000 -0.000000 -0.000000 0.000000 -0.000001 -0.000000 0.000002 -0.000000 0.000001 -0.000000 0.000002 0.000001 -0.000000 0.000002 0.000003 0.000001 0.000002 
-10.265362 12.115082 309.103729 293.283241 -7.859298 38.218911 -0.000001 0.000001 -0.000004 -43.061928 -25.122170 29.565369 93.159573 0.316790 -2.803653 43.727889 3.524850 -18.289689 0.000000 0.000000 0.000000 0.000000 0.000000 0.000000 0.000002 0.000000 -0.000000 -78.017856 -7.845910 -14.267730 67.467878 0.827558 2.346810 61.076453 31.373180 -6.421754 0.000002 0.000002 0.000002 0.000002 0.000002 0.000002 0.000000 -0.000002 0.000002 13.167623 -1.979289 -2.853862 26.164322 -4.489416 -6.832331 26.164301 -4.489411 -6.832319 13.467872 -8.026910 -1.350933 11.257663 -54.178655 19.255135 0.000001 -0.000001 -0.000000 0.000001 -0.000001 -0.000000 0.000001 -0.000001 -0.000000 0.460233 6.179418 1.377818 -17.307952 -14.230106 -30.088763 -1.019578 -76.262095 -1.242576 -7.645834 12.747719 35.436008 -15.733120 22.738255 -25.947808 -29.601476 16.988868 6.512033 -0.000001 0.000000 0.000002 -6.422784 0.798464 -21.474718 -0.435164 0.208232 -13.249298 -0.000003 0.000003 -0.000001 -0.521099 2.639575 -20.507570 -2.801832 -0.346249 -21.204461 0.000002 0.000001 0.000000 0.637649 14.729969 -21.486723 -1.112514 -2.360531 -29.652109 0.000003 -0.000001 -0.000002 7.844150 17.634915 -35.974285 -0.994553 -2.790699 -23.078784 -0.000003 0.000002 0.000004 -0.000000 -0.000001 0.000001 0.836098 -12.646355 -7.518485 48.617929 28.366891 80.371669 1.262375 43.620815 -0.268612 41.690628 -12.773855 -85.856154 -34.839576 1.536754 -12.760322 -0.187634 -1.612240 -1.865800 0.000001 0.000000 -0.000002 -3.945417 13.408240 -15.657311 0.025589 -0.323398 7.021727 -0.000000 -0.000000 0.000000 -0.125583 -1.737748 -18.451047 -0.069292 0.637862 10.374669 0.000000 0.000001 -0.000002 -0.609876 -13.366956 -14.420725 -0.216250 0.966113 8.980282 0.000001 0.000001 0.000001 5.770692 -17.156925 -8.775679 0.033246 0.108016 0.430091 0.000000 0.000002 -0.000001 -0.000004 0.000001 0.000000 -0.000000 -0.000000 0.000000 -0.000000 -0.000000 0.000000 -0.000000 -0.000000 0.000000 -0.000000 -0.000000 0.000000 -0.000000 -0.000000 0.000000 0.000000 -0.000000 0.000001 -0.000000 -0.000000 0.000000 -0.000000 -0.000000 0.000000 0.000000 -0.000000 0.000001 -0.000002 -0.000001 -0.000001 -0.000002 -0.000001 -0.000001 -0.000001 0.000001 -0.000004 
-10.220287 13.900383 310.077759 296.999657 -13.099604 40.033986 0.000001 0.000001 -0.000000 -36.053136 -21.223510 30.164380 94.065994 0.163407 -2.839992 39.921551 4.913979 -24.424232 -0.000000 -0.000000 0.000000 -0.000000 -0.000000 0.000000 -0.000003 0.000003 -0.000000 -75.853144 -12.479318 -15.056962 67.060156 0.982044 2.348409 61.794777 32.622285 -8.480673 -0.000000 -0.000001 0.000002 -0.000000 -0.000001 0.000002 -0.000000 -0.000003 -0.000001 12.599752 -2.373861 -3.308860 24.998460 -4.927912 -7.591198 24.998482 -4.927914 -7.591217 13.001085 -8.730865 -1.875245 7.574530 -54.396265 15.482598 0.000002 0.000001 0.000000 0.000002 0.000001 0.000000 0.000002 0.000001 0.000000 0.560501 4.407767 0.680101 -22.022350 -22.184784 -26.656080 -1.130965 -76.196484 -1.303722 -1.505706 12.926007 28.233548 -15.432152 22.738338 -26.126872 -29.575846 16.995343 6.434693 0.000002 0.000001 -0.000002 -6.414666 0.811562 -22.324163 -0.413269 0.250422 -16.146301 0.000000 0.000000 -0.000005 -0.538762 2.573543 -21.387826 -3.227201 -0.232573 -26.165249 -0.000001 -0.000001 0.000000 0.557441 15.023629 -23.072550 -1.171255 -2.471627 -31.166163 -0.000000 -0.000001 -0.000001 7.864454 17.762096 -37.097612 -1.092991 -3.000487 -25.272354 -0.000002 0.000002 0.000000 0.000000 -0.000000 0.000002 0.693293 -11.514647 -8.122277 50.181618 24.716436 79.195736 1.179826 43.623168 -0.194349 45.622535 -14.360852 -87.143850 -34.833097 1.416215 -12.819724 -0.178413 -1.630902 -1.867325 -0.000001 -0.000001 -0.000000 -3.948056 13.382810 -15.257727 0.027256 -0.333860 7.291173 0.000000 0.000000 0.000004 -0.122676 -1.722746 -18.159077 -0.072376 0.653806 10.643853 -0.000000 0.000002 -0.000003 -0.597300 -13.330604 -14.146656 -0.220659 0.995116 9.248395 -0.000000 -0.000002 0.000002 5.772447 -17.131373 -8.584793 0.032121 0.196760 0.923273 0.000002 0.000001 0.000000 0.000001 0.000000 0.000001 -0.000000 -0.000000 -0.000002 -0.000000 -0.000000 -0.000002 -0.000000 -0.000000 -0.000002 -0.000000 -0.000000 -0.000002 -0.000000 -0.000000 -0.000002 -0.000000 -0.000001 0.000000 -0.000000 -0.000000 -0.000002 -0.000000 -0.000000 -0.000002 -0.000000 -0.000001 0.000000 -0.000000 -0.000000 0.000001 -0.000000 -0.000000 0.000001 0.000001 0.000001 -0.000000 
